<svg width="1705" height="641" viewBox="0 0 1705 641" fill="none" xmlns="http://www.w3.org/2000/svg">
<g clip-path="url(#clip0_171_10)">
<path d="M302.05 197.881V479.001L390.605 392.057V316.383C534.095 100.761 862.572 51.6862 1008.87 54.1013C1426.08 50.8812 1635.29 266.632 1705.23 417.174C1521.52 21.7387 1164.09 0.96875 1008.87 0.96875C735 0.96875 497.031 105.463 390.605 217.202V197.881H302.05Z" fill="#5E5E5E"/>
<path d="M1340.23 189.833C1404.49 190.284 1443.28 218.368 1465.64 253.3C1488 288.221 1493.94 329.974 1492.54 357.771L1492.53 357.925H1275.99C1276.91 378.817 1284.41 394.657 1295.94 405.202C1307.5 415.776 1323.11 421.039 1340.23 420.718C1353.9 420.461 1366.15 415.216 1375.91 408.758C1385.66 402.299 1392.92 394.632 1396.61 389.549L1396.67 389.466L1396.77 389.485L1481.62 405.747L1481.79 405.779L1481.75 405.943C1477.23 424.351 1460.81 445.217 1436.06 461.505C1411.3 477.796 1378.18 489.52 1340.23 489.629C1273.07 489.822 1232.29 463.677 1208.6 430.899C1184.92 398.134 1178.34 358.757 1179.54 332.485C1179.54 308.519 1187.58 272.633 1211.68 242.848C1235.8 213.055 1275.97 189.382 1340.23 189.833ZM1337.81 245.863C1293.76 246.378 1276.42 283.539 1273.25 302.055H1406.72C1402.27 283.861 1386.92 245.289 1337.81 245.863Z" fill="#5E5E5E"/>
<path d="M836.596 482.227H751.584V446.161C751.584 480.295 693.299 485.608 672.207 486.735C651.115 487.862 532.774 474.66 532.774 343.277C532.774 211.895 627.447 192.896 672.207 192.413C708.015 192.027 740.045 218.657 751.584 232.021V104.664C751.636 104.647 775.271 96.9851 792.479 92.749C809.707 88.5083 835.63 85.8262 835.63 85.8262L836.596 482.227ZM673.979 260.841C637.876 260.841 608.609 296.667 608.609 340.861C608.609 385.055 637.876 420.882 673.979 420.882C710.081 420.882 739.348 385.056 739.348 340.861C739.348 296.667 710.081 260.841 673.979 260.841Z" fill="#5E5E5E"/>
<path d="M1070.38 95.1602C1103.39 97.4143 1125.93 97.7359 1160.87 107.718V433.437C1160.87 565.784 1070.22 590.096 998.573 594.282C941.254 597.631 882.701 564.979 860.589 548.234L896.172 496.712C905.886 508.09 939.966 530.716 998.573 530.201C1057.18 529.686 1070.76 474.278 1070.22 446.639C1068.55 474.59 1018.64 484.368 993.903 485.764C882.357 488.468 854.363 384.276 854.309 331.841C852.892 238.07 943.347 191.442 993.903 191.441C1028.68 191.441 1059.27 218.062 1070.22 231.372L1070.38 95.1602ZM997.124 257.617C961.466 257.618 932.56 293.588 932.56 337.96C932.56 382.332 961.466 418.303 997.124 418.304C1032.78 418.304 1061.69 382.332 1061.69 337.96C1061.69 293.588 1032.78 257.617 997.124 257.617Z" fill="#5E5E5E"/>
<path d="M515.547 223.162L426.027 304.471V482.546H515.547V223.162Z" fill="#5E5E5E"/>
<path d="M106.588 74.0645C267.594 74.0645 267.699 144.585 269.688 153.441C286.416 227.912 229.553 267.836 221.893 273.215L221.869 273.231C229.275 273.231 280.118 300.442 281.12 368.065C282.537 463.639 191.385 483.829 146.195 482.541H1.77148V75.0312L106.588 74.0645ZM184.998 354.7C182.905 295.288 105.299 298.991 94.3506 304.787V407.511C125.264 409.711 186.672 402.229 184.998 354.7ZM94.3506 244.41H137.984C156.5 244.41 176.948 218.017 176.948 193.532C176.948 168.737 157.949 146.035 137.984 146.035H94.3506V244.41Z" fill="#5E5E5E"/>
<path d="M109.486 544.855L95.961 550.007C89.5207 526.693 70.1997 522.797 57.4802 522.797C43.1202 522.797 15.2961 531.974 15.2961 575.768C15.2961 619.563 43.4188 629.545 57.4802 629.062C85.3345 629.062 94.9413 607.916 97.5711 597.344L111.418 600.725C108.842 610.643 103.475 619.241 101.113 622.3C94.5119 630.672 89.0376 639.756 57.4802 640.172C20.7704 640.655 7.56776 616.02 2.41551 596.055C-1.70629 580.083 0.698091 562.781 2.41551 556.126C6.27969 541.044 22.7025 510.85 57.4802 510.721C92.2578 510.592 106.641 533.423 109.486 544.855Z" fill="#5E5E5E"/>
<path d="M191.438 510.719C225.139 510.719 252.46 539.697 252.46 575.443C252.46 611.19 225.139 640.169 191.438 640.169C157.737 640.169 130.417 611.19 130.417 575.443C130.417 539.697 157.737 510.719 191.438 510.719ZM191.438 523.6C165.917 523.6 145.228 547.315 145.228 576.57C145.228 605.826 165.917 629.542 191.438 629.542C216.959 629.542 237.647 605.826 237.647 576.57C237.647 547.315 216.958 523.6 191.438 523.6Z" fill="#5E5E5E"/>
<path d="M290.619 638.882H277.738V513.135H290.619L362.106 615.214V513.135H376.758V638.882H362.106L290.619 536.481V638.882Z" fill="#5E5E5E"/>
<path d="M498.798 544.209L485.435 548.878C483.668 544.209 484.859 538.735 476.1 531.007C467.342 523.278 455.596 523.064 450.818 523.922C441.964 523.922 423.709 527.078 421.519 539.701C419.329 552.324 427.905 558.593 432.467 560.149C439.391 561.866 457.585 566.718 474.973 572.386C497.353 579.47 499.393 588.916 501.862 595.41C505.082 601.528 504.599 640.331 457.585 640.331C414.306 640.331 402.305 614.784 401.715 602.011L415.239 598.147C420.714 628.255 447.439 628.255 457.585 628.255C467.084 628.255 483.378 625.132 488.015 610.705C492.652 596.279 478.14 587.628 470.304 585.105C459.141 582.475 433.594 575.767 420.714 569.97C407.833 564.174 406.652 547.376 407.672 539.701C407.672 534.388 418.136 510.559 450.818 510.559C484.952 510.559 497.027 533.046 498.798 544.209Z" fill="#5E5E5E"/>
<path d="M529.394 514.422H543.724V590.579C543.724 603.459 548.296 628.898 578.823 628.254C609.351 627.61 614.943 605.445 613.923 594.443V514.422H627.931V590.579C627.931 602.493 629.702 640.652 578.823 640.652C564.655 641.564 535.223 635.435 530.843 603.62C530.221 599.098 529.914 594.391 529.57 589.597L529.394 587.197L529.394 514.422Z" fill="#5E5E5E"/>
<path d="M529.57 589.597C529.914 594.391 530.221 599.098 530.843 603.62L530.009 595.57L529.57 589.597Z" fill="#5E5E5E"/>
<path d="M672.852 513.619H658.844L659.005 638.561H735.001V626.164H672.852V513.619Z" fill="#5E5E5E"/>
<path d="M793.769 638.72H780.566L780.083 525.854H737.899V513.939H838.851V525.854H793.769V638.72Z" fill="#5E5E5E"/>
<path d="M1703.62 465.477C1510.9 76.804 1171.49 60.059 929.82 76.804C1464.69 59.7369 1560 338.441 1606.54 432.47L1703.62 465.477Z" fill="#5E5E5E"/>
</g>
<defs>
<clipPath id="clip0_171_10">
<rect width="1704.11" height="640.54" fill="white"/>
</clipPath>
</defs>
</svg>
