<svg width="300" height="54" viewBox="0 0 300 54" fill="none" xmlns="http://www.w3.org/2000/svg">
<path d="M181.277 37.1994L183.753 39.9195C182.683 41.4073 181.254 42.5348 179.464 43.302C177.697 44.0692 175.825 44.4528 173.849 44.4528C170.06 44.4528 167.014 43.302 164.713 41.0005C162.434 38.6989 161.295 35.6883 161.295 31.9686C161.295 28.342 162.481 25.3546 164.852 23.0066C167.224 20.6585 170.199 19.4845 173.779 19.4845C175.686 19.4845 177.511 19.8448 179.254 20.5655C180.998 21.263 182.37 22.3091 183.369 23.704L180.579 26.3543C178.906 24.4712 176.709 23.5296 173.989 23.5296C171.455 23.5296 169.432 24.3201 167.921 25.9009C166.433 27.4585 165.689 29.4811 165.689 31.9686C165.689 34.4794 166.468 36.5136 168.026 38.0712C169.606 39.6289 171.652 40.4077 174.163 40.4077C177.092 40.4077 179.464 39.3383 181.277 37.1994ZM205.212 44.1738H186.73V19.7635H204.864V23.7389H190.95V29.8763H203.957V33.7122H190.95V40.1984H205.212V44.1738ZM230.06 19.7635V44.1738H226.782L213.321 27.5399V44.1738H209.206V19.7635H212.484L225.945 36.4671V19.7635H230.06ZM240.74 23.7389H232.545V19.7635H253.155V23.7389H244.96V44.1738H240.74V23.7389ZM259.842 35.2117V44.1738H255.623V19.7635H265.213C271.629 19.7635 274.837 22.2975 274.837 27.3656C274.837 29.0394 274.337 30.5273 273.338 31.8292C272.361 33.1078 271.071 33.968 269.467 34.4097L276.79 44.1738H271.664L265.003 35.2117H259.842ZM265.108 23.7389H259.842V31.2363H265.317C266.712 31.2363 267.909 30.9225 268.909 30.2948C269.932 29.6439 270.443 28.6674 270.443 27.3656C270.443 24.9478 268.665 23.7389 265.108 23.7389ZM297.909 44.1738H279.427V19.7635H297.56V23.7389H283.647V29.8763H296.654V33.7122H283.647V40.1984H297.909V44.1738Z" fill="#00213E"/>
<path d="M31.9187 35.6328L35.0965 39.0543C34.0603 40.6441 32.5865 41.8768 30.6753 42.7524C28.787 43.6049 26.8297 44.0312 24.8033 44.0312C21.0498 44.0312 18.0447 42.8676 15.788 40.5405C13.5543 38.2133 12.4375 35.2065 12.4375 31.52C12.4375 27.9256 13.6349 24.9418 16.0298 22.5686C18.4246 20.1954 21.3952 19.0088 24.9414 19.0088C26.8757 19.0088 28.7525 19.4005 30.5716 20.1839C32.4138 20.9673 33.7955 22.1078 34.7166 23.6054L31.0898 26.9233C30.422 26.0938 29.5584 25.4372 28.4992 24.9533C27.4629 24.4464 26.4037 24.193 25.3214 24.193C23.1338 24.193 21.3606 24.8727 20.002 26.2321C18.6664 27.5685 17.9986 29.3311 17.9986 31.52C17.9986 33.6397 18.6779 35.3908 20.0366 36.7733C21.3952 38.1557 23.1338 38.847 25.2523 38.847C27.9926 38.847 30.2147 37.7756 31.9187 35.6328Z" fill="url(#paint0_linear_2088_8723)"/>
<path d="M39.9633 43.6164H34.4367L45.0409 19.4235H49.0131L59.6173 43.6164H54.0216L52.0528 39.1235H41.9322L39.9633 43.6164ZM52.0528 39.1235L46.9752 27.3726L41.9322 39.1235H52.0528Z" fill="url(#paint1_linear_2088_8723)"/>
<path d="M67.0679 35.3563V43.6164H61.714V19.4235H71.4892C74.4597 19.4235 76.8316 20.0456 78.6047 21.2898C80.3778 22.534 81.2644 24.5386 81.2644 27.3035C81.2644 28.8242 80.8268 30.2642 79.9518 31.6237C79.0767 32.96 77.9369 33.8817 76.5322 34.3886L83.2677 43.6164H76.8085L70.902 35.3563H67.0679ZM71.3856 24.4349H67.0679V30.3449H71.5928C72.7442 30.3449 73.7113 30.103 74.4943 29.6191C75.3002 29.1352 75.7032 28.3634 75.7032 27.3035C75.7032 26.1745 75.3002 25.4141 74.4943 25.0224C73.7113 24.6308 72.6751 24.4349 71.3856 24.4349Z" fill="url(#paint2_linear_2088_8723)"/>
<path d="M104.319 43.6164H85.5286V19.4235H104.008V24.4349H90.8825V28.9279H103.145V33.7665H90.8825V38.605H104.319V43.6164Z" fill="url(#paint3_linear_2088_8723)"/>
<path d="M126.751 43.6164H107.96V19.4235H126.44V24.4349H113.314V28.9279H125.576V33.7665H113.314V38.605H126.751V43.6164Z" fill="url(#paint4_linear_2088_8723)"/>
<path d="M135.746 35.3563V43.6164H130.392V19.4235H140.167C143.137 19.4235 145.509 20.0456 147.282 21.2898C149.055 22.534 149.942 24.5386 149.942 27.3035C149.942 28.8242 149.504 30.2642 148.629 31.6237C147.754 32.96 146.615 33.8817 145.21 34.3886L151.945 43.6164H145.486L139.58 35.3563H135.746ZM140.063 24.4349H135.746V30.3449H140.27C141.422 30.3449 142.389 30.103 143.172 29.6191C143.978 29.1352 144.381 28.3634 144.381 27.3035C144.381 26.1745 143.978 25.4141 143.172 25.0224C142.389 24.6308 141.353 24.4349 140.063 24.4349Z" fill="url(#paint5_linear_2088_8723)"/>
<path d="M33.6164 7.45321L16.9184 5.17091C16.3002 5.0852 15.4266 5.38096 14.9868 5.82477L3.10404 17.782C2.66005 18.2259 2.80629 18.6584 3.43031 18.747L4.3658 18.8752L5.36798 21.8392C5.12159 22.0045 4.99627 22.3076 5.09511 22.5999C5.1729 22.83 5.36875 22.9829 5.59309 23.0289L5.89605 27.9586C5.88722 28.0261 5.88827 28.0916 5.90868 28.1519L5.9091 28.1532C6.04981 28.5693 6.87637 28.6665 7.75448 28.3692C8.63069 28.0726 9.22791 27.4935 9.08973 27.0765L9.0893 27.0753C9.0689 27.0149 9.02852 26.9641 8.97995 26.914L6.23128 22.8122C6.37975 22.64 6.44402 22.3997 6.36601 22.169C6.26718 21.8767 5.98288 21.7116 5.68823 21.73L4.73918 18.9232L11.414 19.8388C11.4084 19.9534 11.416 20.0693 11.4527 20.178L13.2984 26.2662C13.6997 27.4531 13.2216 22.6849 21.0701 20.178C27.9784 17.9715 30.9343 20.7213 30.7417 20.218L28.4365 14.4288C28.3997 14.3201 28.3354 14.2235 28.2602 14.1361L33.9431 8.41732C34.3842 7.96888 34.2379 7.53638 33.6164 7.45321Z" fill="#343A40"/>
<defs>
<linearGradient id="paint0_linear_2088_8723" x1="12.4375" y1="31.4509" x2="151.639" y2="31.1056" gradientUnits="userSpaceOnUse">
<stop stop-color="#0F4C81"/>
<stop offset="0.385417" stop-color="#4384B5"/>
<stop offset="1" stop-color="#87CEFA"/>
</linearGradient>
<linearGradient id="paint1_linear_2088_8723" x1="12.4375" y1="31.4509" x2="151.639" y2="31.1056" gradientUnits="userSpaceOnUse">
<stop stop-color="#0F4C81"/>
<stop offset="0.385417" stop-color="#4384B5"/>
<stop offset="1" stop-color="#87CEFA"/>
</linearGradient>
<linearGradient id="paint2_linear_2088_8723" x1="12.4375" y1="31.4509" x2="151.639" y2="31.1056" gradientUnits="userSpaceOnUse">
<stop stop-color="#0F4C81"/>
<stop offset="0.385417" stop-color="#4384B5"/>
<stop offset="1" stop-color="#87CEFA"/>
</linearGradient>
<linearGradient id="paint3_linear_2088_8723" x1="12.4375" y1="31.4509" x2="151.639" y2="31.1056" gradientUnits="userSpaceOnUse">
<stop stop-color="#0F4C81"/>
<stop offset="0.385417" stop-color="#4384B5"/>
<stop offset="1" stop-color="#87CEFA"/>
</linearGradient>
<linearGradient id="paint4_linear_2088_8723" x1="12.4375" y1="31.4509" x2="151.639" y2="31.1056" gradientUnits="userSpaceOnUse">
<stop stop-color="#0F4C81"/>
<stop offset="0.385417" stop-color="#4384B5"/>
<stop offset="1" stop-color="#87CEFA"/>
</linearGradient>
<linearGradient id="paint5_linear_2088_8723" x1="12.4375" y1="31.4509" x2="151.639" y2="31.1056" gradientUnits="userSpaceOnUse">
<stop stop-color="#0F4C81"/>
<stop offset="0.385417" stop-color="#4384B5"/>
<stop offset="1" stop-color="#87CEFA"/>
</linearGradient>
</defs>
</svg>
